# xmcd
#
# Track frame offsets:
#	150
#	6772
#	21126
#	35052
#	48265
#	62771
#	76826
#	90905
#	99173
#	112678
#	117689
#	130664
#	138979
#	152955
#	166354
#	178879
#	191210
#	203222
#
# Disc length: 2891 seconds
#
# Revision: 1
# Processed by: cddbd v1.5.1PL0 Copyright (c) Steve Scherf et al.
# Submitted via: audiograbber 1.83.01
#
DISCID=e90b4912
DTITLE=div - Country History#2
DYEAR=2005
DGENRE=Country
TTITLE0=W.M. Stepp and Mae Puckett - The Old Hen
TTITLE1=Kokomo Arnold - The Twelves
TTITLE2=Fort Worth Doughboys - Sunbonnet Sue
TTITLE3=Jimmie Rodgers - Somewhere Down Below
TTITLE4=Tex Ritter - Rye Whiskey
TTITLE5=The Carter Family - Bye And Bye
TTITLE6=Ernest Phipps - Don't Grieve After Me
TTITLE7=W.M. Stepp and W. Williams - Mud Fence
TTITLE8=B. F. Shelton - Oh Molly Dear
TTITLE9=Gene Autry - Tumbling Tumbleweeds
TTITLE10=Roy Acuff - Great Spreckled Bird
TTITLE11=Gene Autry - Guns And Guitars
TTITLE12=Jimmie Davis - Honky Tonk Blues
TTITLE13=Gene Autry - I'll Go Ridin' Down
TTITLE14=Milton Brown - Mama Don't Allow It
TTITLE15=Walker's Corbin Ramblers - Ruffles And Bustiers
TTITLE16=Shelley Lee Alley - Woman Woman Woman
TTITLE17=Rex Griffin - The Last Letter
EXTD=
EXTT0=
EXTT1=
EXTT2=
EXTT3=
EXTT4=
EXTT5=
EXTT6=
EXTT7=
EXTT8=
EXTT9=
EXTT10=
EXTT11=
EXTT12=
EXTT13=
EXTT14=
EXTT15=
EXTT16=
EXTT17=
PLAYORDER=
